<svg width="63" height="52" viewBox="0 0 63 52" fill="none" xmlns="http://www.w3.org/2000/svg">
<path fill-rule="evenodd" clip-rule="evenodd" d="M45 40.3C45 45.54 40.75 49.8 35.5 49.8H9.5C4.25 49.8 0 45.54 0 40.3V24.3C0 19.05 4.25 14.8 9.5 14.8H35.5C40.75 14.8 45 19.05 45 24.3V40.3ZM42 24.3C42 20.71 39.09 17.8 35.5 17.8H9.5C5.91 17.8 3 20.71 3 24.3V40.3C3 43.89 5.91 46.8 9.5 46.8H35.5C39.09 46.8 42 43.89 42 40.3V24.3Z" fill="white"/>
<path fill-rule="evenodd" clip-rule="evenodd" d="M59.1298 51.1798C58.4498 51.1798 57.6698 50.9898 57.0798 50.6298L42.8498 41.8498C42.3898 41.5599 42.0898 41.0599 42.1098 40.5199L42.5498 26.7799C42.5598 26.2799 42.8198 25.8299 43.2298 25.5599L56.9298 16.8C57.5398 16.41 58.4298 16.21 59.1298 16.21C61.1498 16.21 62.9998 17.88 62.9998 19.9299V47.4598C62.9998 49.5098 61.1498 51.1798 59.1298 51.1798ZM45.1098 39.7499L58.7698 48.0698C59.1998 48.3398 59.9998 48.0798 59.9998 47.4598V19.9299C59.9998 19.3099 59.1998 19.0399 58.7598 19.3199L45.6098 27.6699L45.1098 39.7499Z" fill="white"/>
<path fill-rule="evenodd" clip-rule="evenodd" d="M29.66 17.5199C25.75 17.5199 22.5601 14.3399 22.5601 10.4299C22.5601 6.51994 25.75 3.32996 29.66 3.32996C33.57 3.32996 36.75 6.51994 36.75 10.4299C36.75 14.3399 33.57 17.5199 29.66 17.5199ZM29.66 6.32994C27.4 6.32994 25.56 8.16994 25.56 10.4299C25.56 12.6899 27.4 14.5199 29.66 14.5199C31.92 14.5199 33.75 12.6899 33.75 10.4299C33.75 8.16994 31.92 6.32994 29.66 6.32994Z" fill="white"/>
<path fill-rule="evenodd" clip-rule="evenodd" d="M16.8801 17.52C12.0501 17.52 8.12012 13.59 8.12012 8.76001C8.12012 3.93 12.0501 0 16.8801 0C21.71 0 25.64 3.93 25.64 8.76001C25.64 13.59 21.71 17.52 16.8801 17.52ZM16.8801 3C13.7001 3 11.1201 5.59001 11.1201 8.76001C11.1201 11.94 13.7001 14.52 16.8801 14.52C20.06 14.52 22.64 11.94 22.64 8.76001C22.64 5.59001 20.06 3 16.8801 3Z" fill="white"/>
</svg>
