<svg width="56" height="63" viewBox="0 0 56 63" fill="none" xmlns="http://www.w3.org/2000/svg">
<path fill-rule="evenodd" clip-rule="evenodd" d="M55 53.5C55 58.75 50.75 63 45.5 63H9.5C4.25 63 0 58.75 0 53.5V9.5C0 4.25 4.25 0 9.5 0H45.5C50.75 0 55 4.25 55 9.5V53.5ZM52 9.5C52 5.91 49.09 3 45.5 3H9.5C5.91 3 3 5.91 3 9.5V53.5C3 57.09 5.91 60 9.5 60H45.5C49.09 60 52 57.09 52 53.5V9.5Z" fill="white"/>
<path d="M4.57031 20H2.57031C1.75031 20 1.07031 19.33 1.07031 18.4999C1.07031 17.6699 1.75031 16.9999 2.57031 16.9999H4.57031C5.40031 16.9999 6.07031 17.6699 6.07031 18.4999C6.07031 19.33 5.40031 20 4.57031 20Z" fill="white"/>
<path d="M51.5703 20H4.57031C3.74031 20 3.07031 19.33 3.07031 18.4999C3.07031 17.6699 3.74031 16.9999 4.57031 16.9999H51.5703C52.4003 16.9999 53.0703 17.6699 53.0703 18.4999C53.0703 19.33 52.4003 20 51.5703 20Z" fill="white"/>
<path d="M53.5703 20H51.5703C50.7503 20 50.0703 19.33 50.0703 18.4999C50.0703 17.6699 50.7503 16.9999 51.5703 16.9999H53.5703C54.4003 16.9999 55.0703 17.6699 55.0703 18.4999C55.0703 19.33 54.4003 20 53.5703 20Z" fill="white"/>
<path d="M16.7999 11.15C16.7999 12.56 15.6599 13.7 14.2499 13.7C12.8399 13.7 11.6899 12.56 11.6899 11.15C11.6899 9.73996 12.8399 8.58997 14.2499 8.58997C15.6599 8.58997 16.7999 9.73996 16.7999 11.15Z" fill="white"/>
<path d="M26.0001 11.15C26.0001 12.56 24.8601 13.7 23.4501 13.7C22.0401 13.7 20.8901 12.56 20.8901 11.15C20.8901 9.73996 22.0401 8.58997 23.4501 8.58997C24.8601 8.58997 26.0001 9.73996 26.0001 11.15Z" fill="white"/>
<path d="M34.1804 11.15C34.1804 12.56 33.0404 13.7 31.6304 13.7C30.2103 13.7 29.0703 12.56 29.0703 11.15C29.0703 9.73996 30.2103 8.58997 31.6304 8.58997C33.0404 8.58997 34.1804 9.73996 34.1804 11.15Z" fill="white"/>
<path d="M37.4697 45.4199C36.9897 45.4199 36.5197 45.1999 36.2297 44.7699C35.7597 44.0799 35.9397 43.1499 36.6297 42.6799L44.2797 37.48L36.7897 33.65C36.0497 33.28 35.7597 32.37 36.1297 31.64C36.5097 30.9 37.4197 30.61 38.1497 30.98L45.8897 34.94C46.7797 35.39 47.3497 36.25 47.4297 37.23C47.5097 38.22 47.0797 39.16 46.2797 39.7499L38.3097 45.1599C38.0597 45.3399 37.7597 45.4199 37.4697 45.4199Z" fill="white"/>
<path d="M20.2799 49.4199C19.99 49.4199 19.7 49.3399 19.44 49.1599L11.51 43.7799C10.67 43.16 10.24 42.22 10.32 41.23C10.4 40.25 10.98 39.39 11.86 38.94L19.6 34.98C20.3399 34.61 21.2399 34.9 21.6199 35.64C21.9899 36.37 21.6999 37.28 20.9599 37.65L13.47 41.48L21.1199 46.6799C21.8099 47.1499 21.9899 48.0799 21.5199 48.7699C21.2299 49.1999 20.7599 49.4199 20.2799 49.4199Z" fill="white"/>
<path d="M26.0001 52.3101C25.8601 52.3101 25.7101 52.2901 25.5601 52.2501C24.7701 52.0001 24.3201 51.1601 24.5701 50.3701L31.1501 29.26C31.4001 28.47 32.2401 28.02 33.0301 28.27C33.8201 28.52 34.2601 29.36 34.0101 30.15L27.4401 51.2601C27.2401 51.9001 26.6401 52.3101 26.0001 52.3101Z" fill="white"/>
</svg>
