<svg width="56" height="56" viewBox="0 0 56 56" fill="none" xmlns="http://www.w3.org/2000/svg">
<path fill-rule="evenodd" clip-rule="evenodd" d="M56 46.5C56 51.75 51.75 56 46.5 56H9.5C4.25 56 0 51.75 0 46.5V9.5C0 4.26 4.25 0 9.5 0H46.5C51.75 0 56 4.26 56 9.5V46.5ZM53 9.5C53 5.91 50.09 3 46.5 3H9.5C5.91 3 3 5.91 3 9.5V46.5C3 50.09 5.91 53 9.5 53H46.5C50.09 53 53 50.09 53 46.5V9.5Z" fill="white"/>
<path d="M41.5 55.5C40.67 55.5 40 54.83 40 54V2C40 1.18 40.67 0.5 41.5 0.5C42.33 0.5 42.9999 1.18 42.9999 2V54C42.9999 54.83 42.33 55.5 41.5 55.5Z" fill="white"/>
<path d="M28.5 55.5C27.67 55.5 27 54.83 27 54V2C27 1.18 27.67 0.5 28.5 0.5C29.33 0.5 30 1.18 30 2V54C30 54.83 29.33 55.5 28.5 55.5Z" fill="white"/>
<path d="M15.5 55.5C14.67 55.5 14 54.83 14 54V2C14 1.18 14.67 0.5 15.5 0.5C16.33 0.5 17 1.18 17 2V54C17 54.83 16.33 55.5 15.5 55.5Z" fill="white"/>
<path d="M53.5699 30H28.5698C27.7498 30 27.0698 29.33 27.0698 28.5C27.0698 27.68 27.7498 27 28.5698 27H53.5699C54.3999 27 55.0699 27.68 55.0699 28.5C55.0699 29.33 54.3999 30 53.5699 30Z" fill="white"/>
</svg>
