<svg width="63" height="60" viewBox="0 0 63 60" fill="none" xmlns="http://www.w3.org/2000/svg">
<path fill-rule="evenodd" clip-rule="evenodd" d="M43.864 60H19.134C13.684 60 8.95398 56.55 7.34398 51.43L0.573979 29.8799C-0.606021 26.1199 0.0539794 22.1599 2.36398 19.0199C4.70398 15.8299 8.34398 13.9999 12.354 13.9999H50.644C54.634 13.9999 58.274 15.8299 60.624 19.0199C62.944 22.1899 63.604 26.1599 62.424 29.9299L55.644 51.48C54.054 56.58 49.324 60 43.864 60ZM12.354 16.9999C9.31398 16.9999 6.55398 18.3799 4.78398 20.7899C3.03398 23.1599 2.54398 26.1499 3.43398 28.9899L10.214 50.53C11.424 54.4 15.004 57 19.134 57H43.864C48.004 57 51.584 54.42 52.784 50.58L59.564 29.0299C60.454 26.1899 59.954 23.1899 58.204 20.7999C56.424 18.3799 53.674 16.9999 50.644 16.9999H12.354Z" fill="white"/>
<path d="M47.0537 16.5C46.2237 16.5 45.5537 15.83 45.5537 15V9.5C45.5537 5.92 42.2137 3 38.6237 3H23.6237C20.0437 3 17.5537 5.92 17.5537 9.5V15C17.5537 15.83 16.8837 16.5 16.0537 16.5C15.2237 16.5 14.5537 15.83 14.5537 15V9.5C14.5537 4.26 18.3837 0 23.6237 0H38.6237C43.8637 0 48.5537 4.26 48.5537 9.5V15C48.5537 15.83 47.8837 16.5 47.0537 16.5Z" fill="white"/>
</svg>
