<svg width="63" height="51" viewBox="0 0 63 51" fill="none" xmlns="http://www.w3.org/2000/svg">
<path fill-rule="evenodd" clip-rule="evenodd" d="M62.9301 35.4999C62.9301 40.7399 58.6801 44.9999 53.4301 44.9999H10.4302C5.18017 44.9999 0.930176 40.7399 0.930176 35.4999V9.49997C0.930176 4.24999 5.18017 0 10.4302 0H53.4301C58.6801 0 62.9301 4.24999 62.9301 9.49997V35.4999ZM59.9301 9.49997C59.9301 5.90998 57.0201 2.99999 53.4301 2.99999H10.4302C6.84017 2.99999 3.93017 5.90998 3.93017 9.49997V35.4999C3.93017 39.0899 6.84017 41.9999 10.4302 41.9999H53.4301C57.0201 41.9999 59.9301 39.0899 59.9301 35.4999V9.49997Z" fill="white"/>
<path fill-rule="evenodd" clip-rule="evenodd" d="M52.2002 44.9999H12.0502C6.18016 44.9999 1.41016 40.2899 1.41016 34.5C1.41016 33.67 2.08016 33 2.91016 33H61.3402C62.1702 33 62.8402 33.67 62.8402 34.5C62.8402 40.2899 58.0602 44.9999 52.2002 44.9999ZM4.56016 36C5.27016 39.4199 8.36016 41.9999 12.0502 41.9999H52.2002C55.8902 41.9999 58.9702 39.4199 59.6802 36H4.56016Z" fill="white"/>
<path d="M61.5 51H1.5C0.68 51 0 50.32 0 49.4999C0 48.6699 0.68 47.9999 1.5 47.9999H61.5C62.33 47.9999 63 48.6699 63 49.4999C63 50.32 62.33 51 61.5 51Z" fill="white"/>
<path d="M35.42 30.2899C35.04 30.2899 34.65 30.1399 34.36 29.8499C33.77 29.2599 33.77 28.3099 34.36 27.7299L42.64 19.4499C43.23 18.8599 44.18 18.8599 44.76 19.4499C45.35 20.0299 45.35 20.9799 44.76 21.5699L36.48 29.8499C36.19 30.1399 35.8 30.2899 35.42 30.2899Z" fill="white"/>
<path d="M22.5899 31.6901C22.2099 31.6901 21.8199 31.5501 21.5299 31.2501C20.9399 30.6701 20.9399 29.7201 21.5299 29.13L39.47 11.1899C40.06 10.5999 41.01 10.5999 41.59 11.1899C42.18 11.7699 42.18 12.7199 41.59 13.31L23.6499 31.2501C23.3599 31.5501 22.9699 31.6901 22.5899 31.6901Z" fill="white"/>
</svg>
